# xmcd
#
# Track frame offsets: 
#        150
#        19417
#        36724
#        56756
#        74294
#        91104
#        110689
#        129002
#        146584
#        163612
#        178590
#        195192
#        219415
#        237945
#        261812
#        278720
#        298230
#        319039
#        337730
#
# Disc length: 4764 seconds
#
# Revision: 0
# Processed by: cddbd v1.5.2PL0 Copyright (c) Steve Scherf et al.
# Submitted via: ExactAudioCopy v1.0b3
#
DISCID=18129a13
DTITLE=Patricia Kaas - Patricia Kaas Greatest Hits
DYEAR=1994
DGENRE=Vocal
TTITLE0=Mon Mec À Moi
TTITLE1=Mademoiselle Chante le Blues
TTITLE2=D'Allemagne
TTITLE3=Vénus des Abribus
TTITLE4=Quand Jimmy Dit
TTITLE5=Des Mannequins en musique
TTITLE6=Elle
TTITLE7=Les Mannequins d'Osier
TTITLE8=Les Hommes Qui Passent
TTITLE9=Kennedy Rose
TTITLE10=Regarde les Riches
TTITLE11=Il me dit
TTITLE12=Entrer Dans
TTITLE13=CEUX QUI N ont Rien
TTITLE14=Jet te dis vous
TTITLE15=Je VOUDRAIS
TTITLE16=Dance ma chair
TTITLE17=Je me souvience de rein
TTITLE18=You don t have to  say you love me
EXTD=
EXTT0=
EXTT1=
EXTT2=
EXTT3=
EXTT4=
EXTT5=
EXTT6=
EXTT7=
EXTT8=
EXTT9=
EXTT10=
EXTT11=
EXTT12=
EXTT13=
EXTT14=
EXTT15=
EXTT16=
EXTT17=
EXTT18=
PLAYORDER=
